<?xml version="1.0" encoding="UTF-8" standalone="no" ?>
<!DOCTYPE svg PUBLIC "-//W3C//DTD SVG 1.1//EN" "http://www.w3.org/Graphics/SVG/1.1/DTD/svg11.dtd">
<svg xmlns="http://www.w3.org/2000/svg" xmlns:xlink="http://www.w3.org/1999/xlink" version="1.1" width="1400" height="350" viewBox="0 0 1300 400" xml:space="preserve">
<desc>Created with Fabric.js 4.2.0</desc>
<defs>
</defs>
<rect x="0" y="0" width="100%" height="100%" fill="transparent"></rect>
<g transform="matrix(1 0 0 1 650 200)" id="feea0afc-ee9a-4acc-bbc5-27155fd6f4d1"  >
<rect style="stroke: none; stroke-width: 1; stroke-dasharray: none; stroke-linecap: butt; stroke-dashoffset: 0; stroke-linejoin: miter; stroke-miterlimit: 4; fill: rgba(94,94,94, 0); fill-rule: nonzero; opacity: 1;" vector-effect="non-scaling-stroke"  x="-650" y="-200" rx="0" ry="0" width="1300" height="400" />
</g>
<g transform="matrix(Infinity NaN NaN Infinity 0 0)" id="0da63d1b-e2b0-4456-8387-2ef489e5e47c"  >
</g>
<g transform="matrix(4.2 0 0 4.2 210.63 200)"  >
<path style="stroke: #ff8400; stroke-width: 4; stroke-dasharray: none; stroke-linecap: butt; stroke-dashoffset: 0; stroke-linejoin: miter; stroke-miterlimit: 4; fill: #ff8400; fill-rule: nonzero; opacity: 1;" vector-effect="non-scaling-stroke"  transform=" translate(-50, -50)" d="M 50 92.875 C 26.358 92.875 7.125 73.642 7.125 50 C 7.125 26.358000000000004 26.358 7.125 50 7.125 C 73.642 7.125 92.875 26.358 92.875 50 C 92.875 73.642 73.642 92.875 50 92.875 z M 50 9.125 C 27.461 9.125 9.125 27.461 9.125 50 C 9.125 72.538 27.461 90.875 50 90.875 C 72.538 90.875 90.875 72.538 90.875 50 C 90.875 27.461 72.538 9.125 50 9.125 z" stroke-linecap="round" />
</g>
<g transform="matrix(2.84 0 0 2.84 226.72 200.01)" id="c1010a74-7651-4048-bfb3-48352b010c14"  >
<polygon style="stroke: rgb(0,0,0); stroke-width: 0; stroke-dasharray: none; stroke-linecap: butt; stroke-dashoffset: 0; stroke-linejoin: miter; stroke-miterlimit: 4; fill: #ff8400; fill-rule: nonzero; opacity: 1;" vector-effect="non-scaling-stroke"  points="-30.68,-37.41 30.68,0 -30.68,37.41 " />
</g>
<g transform="matrix(0.88 0 0 0.99 837.25 148.08)" style="" id="0cb4188d-7e18-484b-9ac6-e1676ec51a6c"  >
		<text xml:space="preserve" font-family="Lato" font-size="200" font-style="normal" font-weight="700" style="stroke: none; stroke-width: 1; stroke-dasharray: none; stroke-linecap: butt; stroke-dashoffset: 0; stroke-linejoin: miter; stroke-miterlimit: 4; fill: rgb(255,255,255); fill-rule: nonzero; opacity: 1; white-space: pre;" ><tspan x="-421" y="62.83" >F</tspan><tspan x="-261" y="62.83" >I</tspan><tspan x="-165.2" y="62.83" >L</tspan><tspan x="-1.8" y="62.83" >M</tspan><tspan x="229.6" y="62.83" >L</tspan><tspan x="367" y="62.83" >Y</tspan></text>
</g>
<g transform="matrix(0.73 0 0 0.79 897.05 307.01)" style="" id="df8cbca9-56dc-40e9-94a5-3d4e417123c7"  >
		<text xml:space="preserve" font-family="Lato" font-size="150" font-style="normal" font-weight="500" style="stroke: none; stroke-width: 1; stroke-dasharray: none; stroke-linecap: butt; stroke-dashoffset: 0; stroke-linejoin: miter; stroke-miterlimit: 4; fill: #ff8400; fill-rule: nonzero; opacity: 1; white-space: pre;" ><tspan x="-595.99" y="43.35" >Y</tspan><tspan x="-494.02" y="43.35" >O</tspan><tspan x="-383.2" y="43.35" >U</tspan><tspan x="-281.77" y="43.35" >R</tspan><tspan x="-192.21" y="43.35" style="white-space: pre; "> </tspan><tspan x="-164.89" y="43.35" >W</tspan><tspan x="-40.06" y="43.35" >A</tspan><tspan x="56.64" y="43.35" >T</tspan><tspan x="130.71" y="43.35" >C</tspan><tspan x="225.93" y="43.35" >H</tspan><tspan x="330.95" y="43.35" >L</tspan><tspan x="402.57" y="43.35" >I</tspan><tspan x="445.62" y="43.35" >S</tspan><tspan x="519.45" y="43.35" >T</tspan></text>
</g>
</svg>